<svg width="1200" height="675" viewBox="0 0 1200 675" fill="none" xmlns="http://www.w3.org/2000/svg">
  <defs>
    <linearGradient id="bg" x1="98" y1="70" x2="1098" y2="618" gradientUnits="userSpaceOnUse">
      <stop stop-color="#FFF5E8"/>
      <stop offset="1" stop-color="#FFE1BF"/>
    </linearGradient>
    <linearGradient id="tile" x1="0" y1="0" x2="1" y2="1">
      <stop stop-color="#FFB656"/>
      <stop offset="1" stop-color="#F08A1D"/>
    </linearGradient>
    <linearGradient id="accent" x1="0" y1="0" x2="1" y2="1">
      <stop stop-color="#3457D5"/>
      <stop offset="1" stop-color="#1F3A9A"/>
    </linearGradient>
  </defs>
  <rect width="1200" height="675" rx="36" fill="url(#bg)"/>
  <circle cx="1044" cy="108" r="138" fill="#FFD5A1" fill-opacity=".48"/>
  <rect x="114" y="110" width="972" height="454" rx="36" fill="#FFFDF9" stroke="#F1C893" stroke-width="4"/>
  <rect x="164" y="162" width="872" height="356" rx="30" fill="#FFF3E4"/>
  <rect x="202" y="210" width="356" height="132" rx="24" fill="#FFFFFF" stroke="#EBD4B8" stroke-width="4"/>
  <text x="238" y="290" fill="#2F457F" font-family="Arial, sans-serif" font-size="66" font-weight="800">BUDGET</text>
  <rect x="606" y="200" width="112" height="112" rx="24" fill="url(#tile)"/>
  <rect x="740" y="200" width="112" height="112" rx="24" fill="url(#tile)"/>
  <rect x="874" y="200" width="112" height="112" rx="24" fill="url(#tile)"/>
  <text x="642" y="274" fill="#FFFFFF" font-family="Arial, sans-serif" font-size="64" font-weight="800">D</text>
  <text x="776" y="274" fill="#FFFFFF" font-family="Arial, sans-serif" font-size="64" font-weight="800">G</text>
  <text x="910" y="274" fill="#FFFFFF" font-family="Arial, sans-serif" font-size="64" font-weight="800">T</text>
  <path d="M524 398C596 354 648 330 714 334C788 338 840 382 906 382" stroke="#F2B46F" stroke-width="16" stroke-linecap="round" stroke-dasharray="10 18"/>
  <circle cx="906" cy="382" r="18" fill="#F08A1D"/>
  <rect x="182" y="392" width="836" height="88" rx="26" fill="url(#accent)"/>
  <text x="214" y="447" fill="#FFFFFF" font-family="Arial, sans-serif" font-size="36" font-weight="700">Unscramble the letters to make a money word</text>
  <text x="166" y="92" fill="#774513" font-family="Arial, sans-serif" font-size="34" font-weight="700">FinWord Challenge</text>
</svg>
