<svg width="1200" height="675" viewBox="0 0 1200 675" fill="none" xmlns="http://www.w3.org/2000/svg">
  <defs>
    <linearGradient id="bg" x1="88" y1="72" x2="1116" y2="616" gradientUnits="userSpaceOnUse">
      <stop stop-color="#EEF8F0"/>
      <stop offset="1" stop-color="#D7F0E3"/>
    </linearGradient>
    <linearGradient id="green" x1="0" y1="0" x2="1" y2="1">
      <stop stop-color="#4DBB71"/>
      <stop offset="1" stop-color="#2A8C4E"/>
    </linearGradient>
    <linearGradient id="gold" x1="0" y1="0" x2="1" y2="1">
      <stop stop-color="#FFD874"/>
      <stop offset="1" stop-color="#F2A436"/>
    </linearGradient>
    <linearGradient id="blue" x1="0" y1="0" x2="1" y2="1">
      <stop stop-color="#5A85FF"/>
      <stop offset="1" stop-color="#2F63D7"/>
    </linearGradient>
  </defs>
  <rect width="1200" height="675" rx="36" fill="url(#bg)"/>
  <circle cx="156" cy="118" r="132" fill="#CBECD7" fill-opacity=".6"/>
  <circle cx="1042" cy="578" r="176" fill="#BCE6CF" fill-opacity=".5"/>
  <rect x="116" y="110" width="968" height="456" rx="36" fill="#FBFFFC" stroke="#B9DCC7" stroke-width="4"/>
  <rect x="184" y="170" width="832" height="336" rx="28" fill="#F3FBF5"/>
  <rect x="568" y="222" width="56" height="168" rx="28" fill="#276C4D"/>
  <rect x="328" y="294" width="536" height="24" rx="12" fill="#276C4D"/>
  <path d="M346 294L470 226" stroke="#276C4D" stroke-width="18" stroke-linecap="round"/>
  <path d="M846 294L722 362" stroke="#276C4D" stroke-width="18" stroke-linecap="round"/>
  <circle cx="466" cy="224" r="88" fill="#FFFFFF" stroke="#A5D1B6" stroke-width="8"/>
  <circle cx="726" cy="364" r="88" fill="#FFFFFF" stroke="#A5D1B6" stroke-width="8"/>
  <path d="M414 226H518" stroke="#D9E9DE" stroke-width="14" stroke-linecap="round"/>
  <path d="M680 364H772" stroke="#D9E9DE" stroke-width="14" stroke-linecap="round"/>
  <circle cx="432" cy="226" r="26" fill="url(#gold)"/>
  <circle cx="500" cy="226" r="26" fill="url(#gold)"/>
  <circle cx="694" cy="364" r="26" fill="url(#gold)"/>
  <circle cx="758" cy="364" r="26" fill="url(#gold)"/>
  <rect x="212" y="400" width="236" height="74" rx="22" fill="url(#green)"/>
  <rect x="754" y="128" width="220" height="74" rx="22" fill="url(#blue)"/>
  <text x="252" y="448" fill="#FFFFFF" font-family="Arial, sans-serif" font-size="36" font-weight="800">SAVE</text>
  <text x="798" y="176" fill="#FFFFFF" font-family="Arial, sans-serif" font-size="36" font-weight="800">SPEND</text>
  <text x="170" y="92" fill="#2D5A42" font-family="Arial, sans-serif" font-size="34" font-weight="700">Savings vs. Spending Tradeoff</text>
</svg>
